<mxfile host="app.diagrams.net" modified="2024-02-19T13:51:28.807Z" agent="Mozilla/5.0 (Windows NT 10.0; Win64; x64) AppleWebKit/537.36 (KHTML, like Gecko) Chrome/121.0.0.0 Safari/537.36 Edg/121.0.0.0" version="23.1.5" etag="FWsppM6h0FOhyYlue8zA" type="github">
  <diagram name="Page-1" id="0rk_nsGmjP8SbIC_KuhG">
    <mxGraphModel>
      <root>
        <mxCell id="0" />
        <mxCell id="1" parent="0" />
      </root>
    </mxGraphModel>
  </diagram>
</mxfile>
